<mxfile host="Electron" agent="Mozilla/5.0 (Macintosh; Intel Mac OS X 10_15_7) AppleWebKit/537.36 (KHTML, like Gecko) draw.io/25.0.2 Chrome/128.0.6613.186 Electron/32.2.5 Safari/537.36" version="25.0.2">
  <diagram name="Page-1" id="jL6xbOTDmVu6yH9POuUc">
    <mxGraphModel dx="1185" dy="878" grid="1" gridSize="10" guides="1" tooltips="1" connect="1" arrows="1" fold="1" page="1" pageScale="1" pageWidth="850" pageHeight="1100" math="0" shadow="0">
      <root>
        <mxCell id="0" />
        <mxCell id="1" parent="0" />
        <mxCell id="vTZlsX9Keklg_djNxt9W-117" value="" style="rounded=1;whiteSpace=wrap;html=1;dashed=1;" parent="1" vertex="1">
          <mxGeometry x="30" y="315" width="140" height="470" as="geometry" />
        </mxCell>
        <mxCell id="vTZlsX9Keklg_djNxt9W-121" value="" style="rounded=1;whiteSpace=wrap;html=1;dashed=1;" parent="1" vertex="1">
          <mxGeometry x="349" y="330" width="290" height="438" as="geometry" />
        </mxCell>
        <mxCell id="vTZlsX9Keklg_djNxt9W-124" style="edgeStyle=orthogonalEdgeStyle;rounded=0;orthogonalLoop=1;jettySize=auto;html=1;" parent="1" target="vTZlsX9Keklg_djNxt9W-123" edge="1">
          <mxGeometry relative="1" as="geometry">
            <mxPoint x="270" y="565" as="targetPoint" />
            <Array as="points">
              <mxPoint x="200" y="500" />
              <mxPoint x="200" y="500" />
            </Array>
            <mxPoint x="120" y="500" as="sourcePoint" />
          </mxGeometry>
        </mxCell>
        <mxCell id="vTZlsX9Keklg_djNxt9W-132" value="Ingestion" style="edgeLabel;html=1;align=center;verticalAlign=middle;resizable=0;points=[];" parent="vTZlsX9Keklg_djNxt9W-124" vertex="1" connectable="0">
          <mxGeometry x="-0.4571" relative="1" as="geometry">
            <mxPoint x="21" y="-3" as="offset" />
          </mxGeometry>
        </mxCell>
        <mxCell id="vTZlsX9Keklg_djNxt9W-19" value="AZ Storage Account&lt;div&gt;&lt;br&gt;&lt;/div&gt;" style="image;aspect=fixed;html=1;points=[];align=center;fontSize=12;image=img/lib/azure2/storage/Storage_Accounts.svg;" parent="1" vertex="1">
          <mxGeometry x="40" y="315" width="65" height="52" as="geometry" />
        </mxCell>
        <mxCell id="vTZlsX9Keklg_djNxt9W-147" style="edgeStyle=orthogonalEdgeStyle;rounded=0;orthogonalLoop=1;jettySize=auto;html=1;" parent="1" source="vTZlsX9Keklg_djNxt9W-106" target="vTZlsX9Keklg_djNxt9W-108" edge="1">
          <mxGeometry relative="1" as="geometry" />
        </mxCell>
        <mxCell id="vTZlsX9Keklg_djNxt9W-106" value="Course Indexer&lt;div&gt;&lt;br&gt;&lt;/div&gt;" style="image;aspect=fixed;html=1;points=[];align=center;fontSize=12;image=img/lib/azure2/ai_machine_learning/Cognitive_Services.svg;" parent="1" vertex="1">
          <mxGeometry x="410" y="652" width="68" height="48" as="geometry" />
        </mxCell>
        <mxCell id="vTZlsX9Keklg_djNxt9W-148" style="edgeStyle=orthogonalEdgeStyle;rounded=0;orthogonalLoop=1;jettySize=auto;html=1;" parent="1" source="vTZlsX9Keklg_djNxt9W-108" edge="1">
          <mxGeometry relative="1" as="geometry">
            <mxPoint x="770" y="900" as="targetPoint" />
            <Array as="points">
              <mxPoint x="830" y="595" />
              <mxPoint x="830" y="760" />
              <mxPoint x="771" y="760" />
            </Array>
          </mxGeometry>
        </mxCell>
        <mxCell id="vTZlsX9Keklg_djNxt9W-108" value="Eriched Document&lt;div&gt;&lt;br&gt;&lt;/div&gt;" style="verticalLabelPosition=bottom;html=1;verticalAlign=top;align=center;strokeColor=none;fillColor=#00BEF2;shape=mxgraph.azure.code_file;pointerEvents=1;" parent="1" vertex="1">
          <mxGeometry x="720" y="570" width="47.5" height="50" as="geometry" />
        </mxCell>
        <mxCell id="vTZlsX9Keklg_djNxt9W-143" style="edgeStyle=orthogonalEdgeStyle;rounded=0;orthogonalLoop=1;jettySize=auto;html=1;" parent="1" source="vc7yl8KkMccG8tV9OS0E-4" target="vTZlsX9Keklg_djNxt9W-142" edge="1">
          <mxGeometry relative="1" as="geometry">
            <mxPoint x="155" y="669" as="sourcePoint" />
          </mxGeometry>
        </mxCell>
        <mxCell id="vTZlsX9Keklg_djNxt9W-145" style="edgeStyle=orthogonalEdgeStyle;rounded=0;orthogonalLoop=1;jettySize=auto;html=1;" parent="1" source="vTZlsX9Keklg_djNxt9W-118" target="vTZlsX9Keklg_djNxt9W-120" edge="1">
          <mxGeometry relative="1" as="geometry" />
        </mxCell>
        <mxCell id="vTZlsX9Keklg_djNxt9W-118" value="Custom Skills" style="image;aspect=fixed;html=1;points=[];align=center;fontSize=12;image=img/lib/azure2/ai_machine_learning/Cognitive_Services.svg;" parent="1" vertex="1">
          <mxGeometry x="400" y="449" width="68" height="48" as="geometry" />
        </mxCell>
        <mxCell id="vTZlsX9Keklg_djNxt9W-146" style="edgeStyle=orthogonalEdgeStyle;rounded=0;orthogonalLoop=1;jettySize=auto;html=1;" parent="1" source="vTZlsX9Keklg_djNxt9W-120" target="vTZlsX9Keklg_djNxt9W-108" edge="1">
          <mxGeometry relative="1" as="geometry" />
        </mxCell>
        <mxCell id="vTZlsX9Keklg_djNxt9W-120" value="SpringerLookup&amp;nbsp;" style="image;aspect=fixed;html=1;points=[];align=center;fontSize=12;image=img/lib/azure2/compute/Function_Apps.svg;" parent="1" vertex="1">
          <mxGeometry x="530" y="443" width="68" height="60" as="geometry" />
        </mxCell>
        <mxCell id="vTZlsX9Keklg_djNxt9W-151" style="edgeStyle=orthogonalEdgeStyle;rounded=0;orthogonalLoop=1;jettySize=auto;html=1;" parent="1" source="vTZlsX9Keklg_djNxt9W-122" target="vTZlsX9Keklg_djNxt9W-149" edge="1">
          <mxGeometry relative="1" as="geometry" />
        </mxCell>
        <mxCell id="vTZlsX9Keklg_djNxt9W-122" value="Serch Index" style="image;aspect=fixed;html=1;points=[];align=center;fontSize=12;image=img/lib/azure2/app_services/Search_Services.svg;" parent="1" vertex="1">
          <mxGeometry x="750" y="860" width="68" height="49.120000000000005" as="geometry" />
        </mxCell>
        <mxCell id="vTZlsX9Keklg_djNxt9W-126" style="edgeStyle=orthogonalEdgeStyle;rounded=0;orthogonalLoop=1;jettySize=auto;html=1;" parent="1" source="vTZlsX9Keklg_djNxt9W-123" target="vTZlsX9Keklg_djNxt9W-118" edge="1">
          <mxGeometry relative="1" as="geometry">
            <Array as="points" />
          </mxGeometry>
        </mxCell>
        <mxCell id="vTZlsX9Keklg_djNxt9W-133" value="Enrich" style="edgeLabel;html=1;align=center;verticalAlign=middle;resizable=0;points=[];" parent="vTZlsX9Keklg_djNxt9W-126" vertex="1" connectable="0">
          <mxGeometry x="-0.6596" y="1" relative="1" as="geometry">
            <mxPoint x="18" y="-2" as="offset" />
          </mxGeometry>
        </mxCell>
        <mxCell id="vTZlsX9Keklg_djNxt9W-123" value="Document Cracking" style="shape=mxgraph.sap.icon;labelPosition=center;verticalLabelPosition=bottom;align=center;verticalAlign=top;strokeWidth=1;strokeColor=#D5DADD;fillColor=#EDEFF0;gradientColor=#FCFCFC;gradientDirection=west;aspect=fixed;SAPIcon=Document_Information_Extraction" parent="1" vertex="1">
          <mxGeometry x="230" y="475" width="50" height="50" as="geometry" />
        </mxCell>
        <mxCell id="vTZlsX9Keklg_djNxt9W-135" value="AZ Cognotive Services" style="image;aspect=fixed;html=1;points=[];align=center;fontSize=12;image=img/lib/azure2/ai_machine_learning/Cognitive_Services.svg;" parent="1" vertex="1">
          <mxGeometry x="342" y="315" width="68" height="48" as="geometry" />
        </mxCell>
        <mxCell id="vTZlsX9Keklg_djNxt9W-140" value="Ingestion" style="edgeLabel;html=1;align=center;verticalAlign=middle;resizable=0;points=[];" parent="1" vertex="1" connectable="0">
          <mxGeometry x="190" y="669" as="geometry" />
        </mxCell>
        <mxCell id="vTZlsX9Keklg_djNxt9W-141" value="Enrich" style="edgeLabel;html=1;align=center;verticalAlign=middle;resizable=0;points=[];" parent="1" vertex="1" connectable="0">
          <mxGeometry x="323" y="711" as="geometry" />
        </mxCell>
        <mxCell id="vTZlsX9Keklg_djNxt9W-144" style="edgeStyle=orthogonalEdgeStyle;rounded=0;orthogonalLoop=1;jettySize=auto;html=1;" parent="1" source="vTZlsX9Keklg_djNxt9W-142" target="vTZlsX9Keklg_djNxt9W-106" edge="1">
          <mxGeometry relative="1" as="geometry" />
        </mxCell>
        <mxCell id="vTZlsX9Keklg_djNxt9W-142" value="Document Cracking" style="shape=mxgraph.sap.icon;labelPosition=center;verticalLabelPosition=bottom;align=center;verticalAlign=top;strokeWidth=1;strokeColor=#D5DADD;fillColor=#EDEFF0;gradientColor=#FCFCFC;gradientDirection=west;aspect=fixed;SAPIcon=Document_Information_Extraction" parent="1" vertex="1">
          <mxGeometry x="230" y="686" width="50" height="50" as="geometry" />
        </mxCell>
        <mxCell id="vTZlsX9Keklg_djNxt9W-149" value="Query" style="rounded=0;whiteSpace=wrap;html=1;" parent="1" vertex="1">
          <mxGeometry x="490" y="860" width="120" height="60" as="geometry" />
        </mxCell>
        <mxCell id="vTZlsX9Keklg_djNxt9W-152" value="Azure Static Web&lt;div&gt;&lt;br&gt;&lt;/div&gt;" style="image;aspect=fixed;html=1;points=[];align=center;fontSize=12;image=img/lib/azure2/preview/Static_Apps.svg;" parent="1" vertex="1">
          <mxGeometry x="323" y="860" width="68" height="54" as="geometry" />
        </mxCell>
        <mxCell id="vTZlsX9Keklg_djNxt9W-153" style="edgeStyle=orthogonalEdgeStyle;rounded=0;orthogonalLoop=1;jettySize=auto;html=1;entryX=0.985;entryY=0.481;entryDx=0;entryDy=0;entryPerimeter=0;" parent="1" source="vTZlsX9Keklg_djNxt9W-149" target="vTZlsX9Keklg_djNxt9W-152" edge="1">
          <mxGeometry relative="1" as="geometry" />
        </mxCell>
        <mxCell id="vTZlsX9Keklg_djNxt9W-154" value="User&lt;div&gt;&lt;br&gt;&lt;/div&gt;" style="verticalLabelPosition=bottom;html=1;verticalAlign=top;align=center;strokeColor=none;fillColor=#00BEF2;shape=mxgraph.azure.user;" parent="1" vertex="1">
          <mxGeometry x="113" y="865" width="47.5" height="50" as="geometry" />
        </mxCell>
        <mxCell id="vTZlsX9Keklg_djNxt9W-155" style="edgeStyle=orthogonalEdgeStyle;rounded=0;orthogonalLoop=1;jettySize=auto;html=1;entryX=0.568;entryY=0.62;entryDx=0;entryDy=0;entryPerimeter=0;" parent="1" source="vTZlsX9Keklg_djNxt9W-152" target="vTZlsX9Keklg_djNxt9W-154" edge="1">
          <mxGeometry relative="1" as="geometry" />
        </mxCell>
        <mxCell id="vc7yl8KkMccG8tV9OS0E-1" value="&lt;div&gt;Paper Data&lt;/div&gt;" style="image;aspect=fixed;html=1;points=[];align=center;fontSize=12;image=img/lib/azure2/storage/Storage_Accounts.svg;" vertex="1" parent="1">
          <mxGeometry x="60" y="473" width="65" height="52" as="geometry" />
        </mxCell>
        <mxCell id="vc7yl8KkMccG8tV9OS0E-2" value="" style="image;aspect=fixed;html=1;points=[];align=center;fontSize=12;image=img/lib/azure2/general/Table.svg;" vertex="1" parent="1">
          <mxGeometry x="390" y="430" width="64" height="52" as="geometry" />
        </mxCell>
        <mxCell id="vc7yl8KkMccG8tV9OS0E-3" value="" style="image;aspect=fixed;html=1;points=[];align=center;fontSize=12;image=img/lib/azure2/general/Table.svg;" vertex="1" parent="1">
          <mxGeometry x="390" y="430" width="64" height="52" as="geometry" />
        </mxCell>
        <mxCell id="vc7yl8KkMccG8tV9OS0E-4" value="Course Table" style="image;aspect=fixed;html=1;points=[];align=center;fontSize=12;image=img/lib/azure2/general/Table.svg;" vertex="1" parent="1">
          <mxGeometry x="60" y="643" width="64" height="52" as="geometry" />
        </mxCell>
      </root>
    </mxGraphModel>
  </diagram>
</mxfile>
